<?xml version="1.0" encoding="UTF-8"?>
<svg width="10px" height="16px" viewBox="0 0 10 16" version="1.1" xmlns="http://www.w3.org/2000/svg" xmlns:xlink="http://www.w3.org/1999/xlink">
    <!-- Generator: sketchtool 51.2 (57519) - http://www.bohemiancoding.com/sketch -->
    <title>30472099-2025-4512-BEFE-32B361485D62</title>
    <desc>Created with sketchtool.</desc>
    <defs></defs>
    <g id="CR:-HyperLinking-Iteration-1" stroke="none" stroke-width="1" fill="none" fill-rule="evenodd">
        <g id="+HL.Modules/Toolbars/Document-v3" transform="translate(-497.000000, -12.000000)">
            <g id="+Tools" transform="translate(296.000000, 0.000000)">
                <g id="Pages" transform="translate(0.000000, 2.000000)">
                    <g id="btn-next_page" transform="translate(188.000000, 0.000000)">
                        <rect id="36x36" fill-opacity="0" fill="#FFFFFF" x="0" y="0" width="36" height="36"></rect>
                        <path d="M14.9824203,26 C14.4915051,26 14.0002423,25.818862 13.6164106,25.4545001 C12.8230194,24.7000483 12.7913811,23.4449466 13.5454852,22.6512077 L17.9811052,17.9861231 L13.5500049,13.3533721 C12.7931195,12.5624146 12.8209334,11.3073128 13.6122385,10.5500797 C14.4038914,9.79284656 15.6586454,9.82100812 16.4155309,10.6123133 L22.153884,16.6107262 C22.8853893,17.3756082 22.88678,18.5802973 22.1584038,19.347613 L16.4203983,25.3835747 C16.0299609,25.7927865 15.5074074,26 14.9824203,26 Z" id="Shape" fill="#470A68" fill-rule="nonzero"></path>
                    </g>
                </g>
            </g>
        </g>
    </g>
</svg>