<?xml version="1.0" encoding="UTF-8"?>
<svg width="12px" height="16px" viewBox="0 0 12 16" version="1.1" xmlns="http://www.w3.org/2000/svg" xmlns:xlink="http://www.w3.org/1999/xlink">
    <!-- Generator: sketchtool 51.2 (57519) - http://www.bohemiancoding.com/sketch -->
    <title>FA3BA820-C07D-4F3A-AEF7-6BA9BEE69B44</title>
    <desc>Created with sketchtool.</desc>
    <defs></defs>
    <g id="CR:-HyperLinking-Iteration-1" stroke="none" stroke-width="1" fill="none" fill-rule="evenodd">
        <g id="+HL.Modules/Toolbars/Document-v3" transform="translate(-532.000000, -12.000000)" fill="#470A68">
            <g id="+Tools" transform="translate(296.000000, 0.000000)">
                <g id="Pages" transform="translate(0.000000, 2.000000)">
                    <g id="btn-last_page" transform="translate(224.000000, 0.000000)">
                        <rect id="36x36" fill-opacity="0" x="0" y="0" width="36" height="36"></rect>
                        <path d="M12.4417491,22.9429125 C11.8527503,22.3539305 11.8527503,21.4018107 12.4417491,20.8127952 L15.2947117,17.9581761 L12.5237404,15.1872048 C11.9364149,14.598206 11.9364149,13.6444297 12.5237404,13.0571042 C13.1127391,12.4697788 14.0665154,12.4697788 14.6538409,13.0571042 L18.4890258,16.8956357 C18.7718121,17.1767488 18.9307749,17.5599493 18.9307749,17.9598494 C18.9307749,18.3580928 18.7718121,18.7412767 18.4890258,19.0240797 L14.5701763,22.9429125 C14.2773502,23.2373951 13.8908198,23.3846616 13.5059627,23.3846616 C13.1211055,23.3846616 12.7362484,23.2374119 12.4417491,22.9429125 Z M22.284035,26 C21.452409,26 20.7780723,25.3256801 20.7780723,24.4940373 L20.7780723,11.5059627 C20.7780723,10.6743366 21.452409,10 22.284035,10 C23.1156611,10 23.7899977,10.6743366 23.7899977,11.5059627 L23.7899977,24.4940373 C23.7899977,25.3256801 23.1156611,26 22.284035,26 Z" id="Combined-Shape" fill-rule="nonzero"></path>
                    </g>
                </g>
            </g>
        </g>
    </g>
</svg>