<svg xmlns="http://www.w3.org/2000/svg" xmlns:xlink="http://www.w3.org/1999/xlink" width="12" height="16" version="1.1"><rect id="backgroundrect" width="100%" height="100%" x="0" y="0" fill="none" stroke="none"/>
    <!-- Generator: sketchtool 51.2 (57519) - http://www.bohemiancoding.com/sketch -->
    <title>FA3BA820-C07D-4F3A-AEF7-6BA9BEE69B44</title>
    <desc>Created with sketchtool.</desc>
    <defs/>
    
<g class="currentLayer" style=""><title>Layer 1</title><g id="CR:-HyperLinking-Iteration-1" stroke="none" stroke-width="1" fill="none" fill-rule="evenodd" class="selected" transform="rotate(-179.99998474121094 6.000000000000001,8.000000000000002) ">
        <g id="+HL.Modules/Toolbars/Document-v3" fill="#470A68">
            <g id="+Tools">
                <g id="Pages">
                    <g id="btn-last_page">
                        <rect id="36x36" fill-opacity="0" x="-12" y="-10" width="36" height="36"/>
                        <path d="M0.4417491000000382,12.942912499999998 C-0.14724969999997484,12.3539305 -0.14724969999997484,11.401810699999999 0.4417491000000382,10.8127952 L3.2947116999999935,7.958176099999999 L0.5237403999999515,5.1872048 C-0.06358509999995476,4.598205999999999 -0.06358509999995476,3.6444297 0.5237403999999515,3.0571041999999995 C1.1127390999999989,2.4697788000000003 2.0665153999999575,2.4697788000000003 2.6538408999999774,3.0571041999999995 L6.489025800000036,6.8956357 C6.771812100000034,7.176748799999999 6.93077489999996,7.5599492999999995 6.93077489999996,7.9598493999999995 C6.93077489999996,8.358092800000001 6.771812100000034,8.7412767 6.489025800000036,9.024079700000001 L2.5701762999999573,12.942912499999998 C2.2773502000000008,13.2373951 1.8908198000000311,13.384661600000001 1.5059627000000546,13.384661600000001 C1.1211054999999988,13.384661600000001 0.7362484000000222,13.237411900000001 0.4417491000000382,12.942912499999998 zM10.284035000000017,16 C9.452408999999989,16 8.77807230000002,15.3256801 8.77807230000002,14.494037299999999 L8.77807230000002,1.5059626999999995 C8.77807230000002,0.6743366000000003 9.452408999999989,0 10.284035000000017,0 C11.115661100000011,0 11.789997700000015,0.6743366000000003 11.789997700000015,1.5059626999999995 L11.789997700000015,14.494037299999999 C11.789997700000015,15.3256801 11.115661100000011,16 10.284035000000017,16 z" id="Combined-Shape" fill-rule="nonzero"/>
                    </g>
                </g>
            </g>
        </g>
    </g></g></svg>