<?xml version="1.0" encoding="UTF-8"?>
<svg width="36px" height="36px" viewBox="0 0 36 36" version="1.1" xmlns="http://www.w3.org/2000/svg" xmlns:xlink="http://www.w3.org/1999/xlink">
    <!-- Generator: sketchtool 46.2 (44496) - http://www.bohemiancoding.com/sketch -->
    <title>5497E1A0-280B-4A67-A414-327EAD7BD678</title>
    <desc>Created with sketchtool.</desc>
    <defs></defs>
    <g id="Symbols" stroke="none" stroke-width="1" fill="none" fill-rule="evenodd">
        <g id="Toolbar-Icons-vars" transform="translate(-220.000000, -470.000000)"></g>
        <g id="+HL.Elements/ToolbarBtns/SetSource" fill="#470A68">
            <g id="toolbarBtn-HLnk">
                <rect id="36x36" fill-opacity="0" x="0" y="0" width="36" height="36" rx="4"></rect>
                <path d="M10.9138849,22.9981783 C10.9424389,22.9993879 10.9711478,22.9999988 10.9999993,22.9999988 L12.9999992,22.9999988 C13.0086696,22.9999988 13.0173271,22.9999436 13.0259713,22.9998336 C12.5229806,24.1057324 12.7263267,25.4542702 13.6360098,26.3638981 C14.8075796,27.5354983 16.7070794,27.5354983 17.8786491,26.3638981 L21.414199,22.8283987 C22.5857992,21.6567994 22.5857992,19.7572996 21.414199,18.5857995 C21.0236989,18.1951993 21.0236989,17.5620693 21.414199,17.1715492 C21.804699,16.7810292 22.4378986,16.7810292 22.8283987,17.1715492 C24.7809991,19.1241991 24.7809991,22.289999 22.8283987,24.2425984 L19.2928993,27.7781989 C17.340259,29.7307993 14.1744395,29.7307993 12.2218196,27.7781989 C10.9263303,26.48265 10.4903492,24.6531106 10.9138849,22.9981783 Z M18.5857995,21.414199 C18.9762995,21.804699 18.9762995,22.4378986 18.5857995,22.8283987 C18.1951993,23.2188988 17.5620693,23.2188988 17.1715397,22.8283987 C15.2189198,20.8757993 15.2189198,17.7099489 17.1715397,15.7573295 L20.7069989,12.2218997 C22.6595993,10.2692798 25.8254993,10.2692898 27.7780978,12.2218997 C29.7306982,14.1745196 29.7306982,17.3403391 27.7780978,19.2929995 L26.2924984,20.7784988 C26.3007992,19.9582989 26.1658981,19.1367991 25.8875988,18.3549989 L26.3638981,17.8786491 C27.5354983,16.7070794 27.5354983,14.8075896 26.3638981,13.6360198 C25.1922997,12.4644496 23.2928991,12.4644496 22.1212989,13.6360198 L18.5857995,17.1715492 C17.4141897,18.3430989 17.4141897,20.2425997 18.5857995,21.414199 Z M12.9999992,20.9999988 L10.9999993,20.9999988 L10.9999993,8.98957967 L7.49478974,12.4947988 L6.08057999,11.080599 L11.9999993,5.16115974 L17.919398,11.080599 L16.5051983,12.4947988 L12.9999992,8.98957967 L12.9999992,20.9999988 Z" id="mdi-link-variant"></path>
            </g>
        </g>
    </g>
</svg>