<?xml version="1.0" encoding="UTF-8"?>
<svg width="36px" height="36px" viewBox="0 0 36 36" version="1.1" xmlns="http://www.w3.org/2000/svg" xmlns:xlink="http://www.w3.org/1999/xlink">
    <!-- Generator: sketchtool 51.2 (57519) - http://www.bohemiancoding.com/sketch -->
    <title>C4226E51-74F4-4A22-83CB-5A7B47682864</title>
    <desc>Created with sketchtool.</desc>
    <defs></defs>
    <g id="Symbols" stroke="none" stroke-width="1" fill="none" fill-rule="evenodd">
        <g id="Toolbar-Icons-vars" transform="translate(-70.000000, -210.000000)"></g>
        <g id="Annotations/ToolbarBtns/btn-Pan/A.Default" fill="#470A68">
            <g id="toolbarBtn-Pan">
                <rect id="36x36" fill-opacity="0" x="0" y="0" width="36" height="36" rx="4"></rect>
                <path d="M25.4310729,11.649283 C25.68001,10.9368739 26.2590689,10.5922039 26.9503552,10.7634985 C27.6416415,10.9347931 27.6856734,11.3841649 27.6856734,12.0853261 C27.0941467,14.587902 26.6636784,16.4727128 26.3942687,17.7397584 C26.3371145,18.0085571 26.3139853,18.4217668 26.3248809,18.9793874 L26.3248742,18.9793875 C26.3252792,19.000117 26.3254694,19.0208501 26.3254446,19.0415835 L26.3206194,23.0753649 C26.3206194,24.4363382 25.7916342,29 19.8822339,29 C16.3130644,29 14.4044855,27.599247 13.2263295,25.8083144 C12.0481735,24.0173819 9.28390807,19.8337431 9.28390807,19.8337431 C8.78285322,19.0533841 8.96228502,18.0529671 9.68593688,17.5942311 C10.4121279,17.1456516 11.4032347,17.4080283 11.9110605,18.1909265 L13.6249728,20.5362356 L13.6249566,17.9368035 C13.6249566,17.9272012 13.6249105,17.917599 13.6248183,17.9079972 C13.6200299,17.4093411 13.6045363,17.0948598 13.5783373,16.9645532 C13.2263295,15.2137593 12.5603461,12.2079166 12.159284,10.5783769 C12.0092473,9.96876868 12.2007667,9.33717086 12.9214718,9.1615805 C13.642177,8.98599014 14.2998144,9.27827834 14.4752552,9.93149992 C14.691989,10.7384683 15.894942,15.5183995 16.1641022,16.3043534 C16.2301282,16.4971511 16.4358249,16.7225693 16.6796424,16.6756183 C16.9234599,16.6286674 17.034244,16.4564718 17.0100489,16.2246154 C16.9112308,15.277664 16.2263248,9.06175822 16.1641022,8.44383981 C16.0939885,7.74755757 16.545024,7.08972252 17.2728455,7.00833327 C18.0006671,6.92694402 18.6453924,7.4516889 18.7216296,8.14707801 C18.7803498,8.68268844 19.4857535,15.7292412 19.5496079,16.3043534 C19.5753256,16.5359826 19.7391962,16.7275416 19.9727961,16.7275416 C20.206396,16.7275416 20.3677066,16.5355686 20.3959844,16.3043534 C20.4833663,15.5898688 21.1428686,9.62164939 21.2043101,9.04952083 C21.2922053,8.23106203 21.904746,7.87940088 22.6201332,7.96759879 C23.3355204,8.0557967 23.7540935,8.70437339 23.6896721,9.39961251 C23.6521419,9.80463991 23.0293285,16.2097714 22.9469574,17.0236343 C22.9234808,17.2555931 22.9979238,17.5454338 23.2588123,17.5942311 C23.5197009,17.6430283 23.7139705,17.3703701 23.7814901,17.1507298 C23.8853049,16.813022 24.4351659,14.9792064 25.4310729,11.649283 Z" id="palm-of-hand-e1" fill-rule="nonzero"></path>
            </g>
        </g>
    </g>
</svg>