<?xml version="1.0" encoding="UTF-8"?>
<svg width="36px" height="36px" viewBox="0 0 36 36" version="1.1" xmlns="http://www.w3.org/2000/svg" xmlns:xlink="http://www.w3.org/1999/xlink">
    <!-- Generator: sketchtool 51.2 (57519) - http://www.bohemiancoding.com/sketch -->
    <title>6A9FC5AC-5858-46A3-83B0-66DAECFBFAAF</title>
    <desc>Created with sketchtool.</desc>
    <defs></defs>
    <g id="Symbols" stroke="none" stroke-width="1" fill="none" fill-rule="evenodd">
        <g id="Toolbar-Icons-vars" transform="translate(-310.000000, -470.000000)"></g>
        <g id="+HL.Elements/ToolbarBtns/LinkTarget" fill="#470A68">
            <g id="toolbarBtn-HLnk">
                <rect id="36x36" fill-opacity="0" x="0" y="0" width="36" height="36" rx="4"></rect>
                <path d="M13.7948488,29.2425445 C15.1034856,29.7322436 16.5204739,30 18,30 C24.627417,30 30,24.627417 30,18 C30,16.52037 29.732206,15.1032866 29.2424414,13.7945732 C29.2519586,11.9907522 28.568582,10.1839706 27.1923184,8.80769324 C25.8160365,7.43140321 24.0092132,6.74801725 22.2053691,6.75753701 C20.8966717,6.2677861 19.4796082,6 18,6 C11.372583,6 6,11.372583 6,18 C6,19.4795292 6.26775748,20.8965202 6.7574585,22.2051593 C6.7478684,24.0090664 7.43124241,25.8159854 8.80757349,27.1923799 C10.183965,28.5687576 11.9909104,29.2521438 13.7948488,29.2425445 Z M17.7456427,27.9968282 C18.0837349,27.7619158 18.4057371,27.4937821 18.7070984,27.1924269 L20.2081041,25.6913783 C22.8511443,24.9339925 24.934044,22.8510732 25.6914021,20.2080213 L27.1922637,18.7072607 C27.4936869,18.4058283 27.7618744,18.0837477 27.9968264,17.7455725 C27.998938,17.8301253 28,17.9149386 28,18 C28,23.5228475 23.5228475,28 18,28 C17.9149621,28 17.8301722,27.9989385 17.7456427,27.9968282 Z M8.00317196,18.2543625 C8.0010615,18.1698313 8,18.0850396 8,18 C8,12.4771525 12.4771525,8 18,8 C18.0850453,8 18.1698427,8.00106164 18.2543796,8.00317239 C17.9162325,8.23811401 17.5941809,8.50628762 17.2927783,8.80769324 L15.7918138,10.3086452 C13.1488426,11.0660419 11.0659956,13.1489067 10.3086238,15.7918885 L8.80761577,17.2928759 C8.50624307,17.5942456 8.23809515,17.9162583 8.00317196,18.2543625 Z M18,32 C10.2680135,32 4,25.7319865 4,18 C4,10.2680135 10.2680135,4 18,4 C25.7319865,4 32,10.2680135 32,18 C32,25.7319865 25.7319865,32 18,32 Z M16.5857995,19.414199 C16.9762995,19.804699 16.9762995,20.4378986 16.5857995,20.8283987 C16.1951993,21.2188988 15.5620693,21.2188988 15.1715397,20.8283987 C13.2189198,18.8757993 13.2189198,15.7099489 15.1715397,13.7573295 L18.7069989,10.2218997 C20.6595993,8.26927981 23.8254993,8.26928983 25.7780978,10.2218997 C27.7306982,12.1745196 27.7306982,15.3403391 25.7780978,17.2929995 L24.2924984,18.7784988 C24.3007992,17.9582989 24.1658981,17.1367991 23.8875988,16.3549989 L24.3638981,15.8786491 C25.5354983,14.7070794 25.5354983,12.8075896 24.3638981,11.6360198 C23.1922997,10.4644496 21.2928991,10.4644496 20.1212989,11.6360198 L16.5857995,15.1715492 C15.4141897,16.3430989 15.4141897,18.2425997 16.5857995,19.414199 Z M19.414199,15.1715492 C19.804699,14.7810292 20.4378986,14.7810292 20.8283987,15.1715492 C22.7809991,17.1241991 22.7809991,20.289999 20.8283987,22.2425984 L17.2928993,25.7781989 C15.340259,27.7307993 12.1744395,27.7307993 10.2218196,25.7781989 C8.26920996,23.8254993 8.26919994,20.6596994 10.2218196,18.7070991 L11.7074395,17.2214996 C11.6991297,18.0416996 11.8340999,18.8630992 12.1123396,19.6449996 L11.6360098,20.1212989 C10.4644396,21.2928991 10.4644396,23.1923989 11.6360098,24.3638981 C12.8075796,25.5354983 14.7070794,25.5354983 15.8786491,24.3638981 L19.414199,20.8283987 C20.5857992,19.6567994 20.5857992,17.7572996 19.414199,16.5857995 C19.0236989,16.1951993 19.0236989,15.5620693 19.414199,15.1715492 Z" id="ico-target-okyr" fill-rule="nonzero"></path>
            </g>
        </g>
    </g>
</svg>