<?xml version="1.0" encoding="UTF-8"?>
<svg width="36px" height="36px" viewBox="0 0 36 36" version="1.1" xmlns="http://www.w3.org/2000/svg" xmlns:xlink="http://www.w3.org/1999/xlink">
    <!-- Generator: sketchtool 51.2 (57519) - http://www.bohemiancoding.com/sketch -->
    <title>4E6C027A-FDAF-4F9C-93AA-8C3CF9A25095</title>
    <desc>Created with sketchtool.</desc>
    <defs></defs>
    <g id="Symbols" stroke="none" stroke-width="1" fill="none" fill-rule="evenodd">
        <g id="Toolbar-Icons-vars" transform="translate(-160.000000, -470.000000)"></g>
        <g id="+HL.Elements/ToolbarBtns/All_HLs" fill="#470A68">
            <g id="toolbarBtn-HLnk">
                <rect id="36x36" fill-opacity="0" x="0" y="0" width="36" height="36" rx="4"></rect>
                <path d="M16.8994627,25 L31,25 L31,27 L14.8995199,27 L16.8994627,25 Z M21.8994373,20 L31,20 L31,22 L19.8993026,22 L21.8994373,20 Z M25.1320013,15 L31,15 L31,17 L24.4483457,17 C24.7802808,16.3651571 25.0081658,15.6900825 25.1320013,15 Z M24.1504047,10 L31,10 L31,12 L25.0194937,12 C24.8391544,11.3018614 24.5494579,10.6261352 24.1504047,10 Z M12.5857995,19.414199 C12.9762995,19.804699 12.9762995,20.4378986 12.5857995,20.8283987 C12.1951993,21.2188988 11.5620693,21.2188988 11.1715397,20.8283987 C9.2189198,18.8757993 9.2189198,15.7099489 11.1715397,13.7573295 L14.7069989,10.2218997 C16.6595993,8.26927981 19.8254993,8.26928983 21.7780978,10.2218997 C23.7306982,12.1745196 23.7306982,15.3403391 21.7780978,17.2929995 L20.2924984,18.7784988 C20.3007992,17.9582989 20.1658981,17.1367991 19.8875988,16.3549989 L20.3638981,15.8786491 C21.5354983,14.7070794 21.5354983,12.8075896 20.3638981,11.6360198 C19.1922997,10.4644496 17.2928991,10.4644496 16.1212989,11.6360198 L12.5857995,15.1715492 C11.4141897,16.3430989 11.4141897,18.2425997 12.5857995,19.414199 Z M15.414199,15.1715492 C15.804699,14.7810292 16.4378986,14.7810292 16.8283987,15.1715492 C18.7809991,17.1241991 18.7809991,20.289999 16.8283987,22.2425984 L13.2928993,25.7781989 C11.340259,27.7307993 8.17443953,27.7307993 6.22181962,25.7781989 C4.26920996,23.8254993 4.26919994,20.6596994 6.22181962,18.7070991 L7.70743955,17.2214996 C7.69912971,18.0416996 7.83409989,18.8630992 8.1123396,19.6449996 L7.63600982,20.1212989 C6.46443959,21.2928991 6.46443959,23.1923989 7.63600982,24.3638981 C8.80757958,25.5354983 10.7070794,25.5354983 11.8786491,24.3638981 L15.414199,20.8283987 C16.5857992,19.6567994 16.5857992,17.7572996 15.414199,16.5857995 C15.0236989,16.1951993 15.0236989,15.5620693 15.414199,15.1715492 Z" id="Combined-Shape"></path>
            </g>
        </g>
    </g>
</svg>