<?xml version="1.0" encoding="UTF-8"?>
<svg width="36px" height="36px" viewBox="0 0 36 36" version="1.1" xmlns="http://www.w3.org/2000/svg" xmlns:xlink="http://www.w3.org/1999/xlink">
    <!-- Generator: sketchtool 46.2 (44496) - http://www.bohemiancoding.com/sketch -->
    <title>52827D74-1ACE-428D-872C-B94266DD07F8</title>
    <desc>Created with sketchtool.</desc>
    <defs></defs>
    <g id="Symbols" stroke="none" stroke-width="1" fill="none" fill-rule="evenodd">
        <g id="Toolbar-Icons-vars" transform="translate(-110.000000, -520.000000)"></g>
        <g id="+HL.Elements/ToolbarBtns/02-Select-active">
            <g id="toolbarBtn-Select-active">
                <rect id="36x36" fill-opacity="0" x="0" y="0" width="36" height="36" rx="4"></rect>
                <path d="M31.9999987,14.0000098 L31.9999987,17.0000096 L29.9999988,17.0000096 L29.9999988,14.0000098 L26.999999,14.0000098 L26.999999,12.0000199 L29.9999988,12.0000199 C31.099999,12.0000199 31.9999987,12.8900097 31.9999987,14.0000098 Z M29.9999988,29.9999988 L29.9999988,26.999999 L31.9999987,26.999999 L31.9999987,29.9999988 C31.9999987,31.1099993 31.099999,31.9999987 29.9999988,31.9999987 L26.999999,31.9999987 L26.999999,29.9999988 L29.9999988,29.9999988 Z M11.9999999,29.9999988 L11.9999999,26.999999 L13.9999998,26.999999 L13.9999998,29.9999988 L16.9999996,29.9999988 L16.9999996,31.9999987 L13.9999998,31.9999987 C12.8999999,31.9999987 11.9999999,31.1099993 11.9999999,29.9999988 Z M22.9999997,12.0000099 L23.9999992,12.0000099 L23.9999992,13.9999998 L22.9999997,13.9999998 L22.9999997,12.0000099 Z M19.999999,29.9999988 L23.9999992,29.9999988 L23.9999992,31.9999987 L19.999999,31.9999987 L19.999999,29.9999988 Z M29.9999988,20.0000102 L31.9999987,20.0000102 L31.9999987,24.0000099 L29.9999988,24.0000099 L29.9999988,20.0000102 Z M11.9999999,19.9999994 L13.9999998,19.9999994 L13.9999998,23.9999992 L11.9999999,23.9999992 L11.9999999,19.9999994 Z M20.999999,19.9999989 C20.999999,20.5522982 21.4476995,20.9999988 21.9999989,20.9999988 L23.9999988,20.9999988 L23.9999988,22.9999987 L21.499999,22.9999987 C20.9476995,22.9999987 19.999999,22.5522981 19.999999,21.9999987 C19.999999,22.5522981 19.0522995,22.9999987 18.4999991,22.9999987 L15.9999993,22.9999987 L15.9999993,20.9999988 L17.9999992,20.9999988 C18.5522985,20.9999988 18.9999991,20.5522982 18.9999991,19.9999989 L18.9999991,6.9999997 C18.9999991,6.44771978 18.5522985,5.99999976 17.9999992,5.99999976 L15.9999993,6.00000977 L15.9999993,4.00000989 L18.4999991,4.00000989 C19.0522995,4.00000989 19.999999,4.4477199 19.999999,5.00000983 C19.999999,4.4477199 20.9476995,4.00000989 21.499999,4.00000989 L23.9999988,4.00000989 L23.9999988,6.00000977 L21.9999989,5.99999976 C21.4476995,5.99999976 20.999999,6.44771978 20.999999,6.9999997 L20.999999,19.9999989 Z M3.9999997,9.00000959 L16.9999992,9.00000959 L16.9999992,17.999999 L3.9999997,17.999999 L3.9999997,9.00000959 Z" id="okyr-select" fill="#470A68"></path>
            </g>
        </g>
    </g>
</svg>