<?xml version="1.0" encoding="UTF-8"?>
<svg width="36px" height="36px" viewBox="0 0 36 36" version="1.1" xmlns="http://www.w3.org/2000/svg" xmlns:xlink="http://www.w3.org/1999/xlink">
    <!-- Generator: sketchtool 51.2 (57519) - http://www.bohemiancoding.com/sketch -->
    <title>7B431B43-18AA-489F-A969-32B9B63F9FE5</title>
    <desc>Created with sketchtool.</desc>
    <defs></defs>
    <g id="Symbols" stroke="none" stroke-width="1" fill="none" fill-rule="evenodd">
        <g id="Toolbar-Icons-vars" transform="translate(-70.000000, -410.000000)"></g>
        <g id="Annotations/ToolbarBtns/btn-SearchText/01-Default" fill="#470A68">
            <rect id="36x36" fill-opacity="0" x="0" y="0" width="36" height="36" rx="4"></rect>
            <path d="M27.6098046,25.7333335 L22.527264,20.626667 C23.461064,19.3199997 24.008004,17.7333336 24.008004,16 C24.008004,11.5866667 20.4195436,8 16.004002,8 C11.588461,8 8,11.5866667 8,16 C8,20.4133339 11.588461,24 16.004002,24 C17.7382027,24 19.3123222,23.4533335 20.6329834,22.5200004 L25.7422045,27.5999997 C25.9956641,27.8666661 26.3425046,28 26.6760046,28 C27.0095047,28 27.3696853,27.8799997 27.6098046,27.5999997 C28.1300651,27.0800005 28.1300651,26.2400004 27.6098046,25.7199999 L27.6098046,25.7333335 Z M16.004002,22.2666664 C12.5489409,22.2666664 9.73420036,19.4533335 9.73420036,16 C9.73420036,12.5466668 12.5489409,9.73333327 16.004002,9.73333327 C19.459063,9.73333327 22.2738033,12.5466668 22.2738033,16 C22.2738033,19.4533335 19.459063,22.2666664 16.004002,22.2666664 Z M19,13 L13,13 L13,15 L15,15 L15,20 L17,20 L17,15 L19,15 L19,13 Z" id="oct-search"></path>
        </g>
    </g>
</svg>