<?xml version="1.0" encoding="UTF-8"?>
<svg width="36px" height="36px" viewBox="0 0 36 36" version="1.1" xmlns="http://www.w3.org/2000/svg" xmlns:xlink="http://www.w3.org/1999/xlink">
    <!-- Generator: sketchtool 46.2 (44496) - http://www.bohemiancoding.com/sketch -->
    <title>D99D73D4-59AB-4412-8726-B49F61FC8CD8</title>
    <desc>Created with sketchtool.</desc>
    <defs></defs>
    <g id="Symbols" stroke="none" stroke-width="1" fill="none" fill-rule="evenodd">
        <g id="Toolbar-Icons-vars" transform="translate(-260.000000, -470.000000)"></g>
        <g id="+HL.Elements/ToolbarBtns/SetTarget" fill="#470A68">
            <g id="toolbarBtn-HLnk">
                <rect id="36x36" fill-opacity="0" x="0" y="0" width="36" height="36" rx="4"></rect>
                <path d="M25.0449374,12.1616546 C25.0299978,12.1613253 25.0150178,12.1611597 24.9999992,12.1611597 L22.9999993,12.1611597 C22.9651173,12.1611597 22.9304438,12.1620527 22.8960004,12.1638171 C23.4981365,11.0299514 23.3216495,9.59110484 22.3665397,8.63601984 C21.1949413,7.46444961 19.2955407,7.46444961 18.1239405,8.63601984 L14.5884411,12.1715492 C13.4168313,13.3430989 13.4168313,15.2425997 14.5884411,16.414199 C14.9789412,16.804699 14.9789412,17.4378986 14.5884411,17.8283987 C14.1978409,18.2188988 13.5647109,18.2188988 13.1741813,17.8283987 C11.2215614,15.8757993 11.2215614,12.7099489 13.1741813,10.7573295 L16.7096405,7.22189973 C18.6622409,5.26927981 21.8281409,5.26928983 23.7807394,7.22189973 C25.1180626,8.55923629 25.5394619,10.4656593 25.0449374,12.1616546 Z M17.4168406,12.1715492 C17.8073406,11.7810292 18.4405402,11.7810292 18.8310403,12.1715492 C20.7836407,14.1241991 20.7836407,17.289999 18.8310403,19.2425984 L15.2955409,22.7781989 C13.3429006,24.7307993 10.1770811,24.7307993 8.22446123,22.7781989 C6.27185157,20.8254993 6.27184155,17.6596994 8.22446123,15.7070991 L9.71008116,14.2214996 C9.70177132,15.0416996 9.8367415,15.8630992 10.1149812,16.6449996 L9.63865143,17.1212989 C8.4670812,18.2928991 8.4670812,20.1923989 9.63865143,21.3638981 C10.8102212,22.5354983 12.709721,22.5354983 13.8812907,21.3638981 L17.4168406,17.8283987 C18.5884408,16.6567994 18.5884408,14.7572996 17.4168406,13.5857995 C17.0263405,13.1951993 17.0263405,12.5620693 17.4168406,12.1715492 Z M24.9999992,14.1611597 L24.9999992,26.1715789 L28.5051983,22.6663598 L29.919398,24.0805596 L23.9999993,29.9999988 L18.08058,24.0805596 L19.4947897,22.6663598 L22.9999993,26.1715789 L22.9999993,14.1611597 L24.9999992,14.1611597 Z" id="mdi-link-variant"></path>
            </g>
        </g>
    </g>
</svg>